<svg width="764" height="296" viewBox="0 0 764 296" fill="none" xmlns="http://www.w3.org/2000/svg">
<path d="M74.3742 0.147949C28.9482 0.147949 0.00415039 26.68 0.00415039 66.88V228.484C0.00415039 268.684 28.9482 295.216 74.3742 295.216C119.8 295.216 148.744 268.684 148.744 228.484V66.88C148.744 26.68 119.8 0.147949 74.3742 0.147949ZM74.3742 52.006C82.8162 52.006 86.8362 58.4379 86.8362 68.4879V226.876C86.8362 236.926 82.8162 243.358 74.3742 243.358C65.9322 243.358 61.5102 236.926 61.5102 226.876V68.4879C61.5102 58.4379 65.9322 52.006 74.3742 52.006Z" fill="white"/>
<path d="M245.708 226.876C245.708 236.926 242.09 243.358 234.05 243.358C225.608 243.358 221.99 236.926 221.99 226.876V184.666H161.69V228.484C161.69 269.086 187.82 295.216 233.246 295.216C278.672 295.216 307.616 269.086 307.616 228.484V191.098C307.616 165.772 299.174 151.702 279.878 138.838L232.844 105.472C226.412 100.648 223.598 95.8239 223.598 85.774V68.4879C223.598 58.4379 227.216 52.006 235.658 52.006C243.698 52.006 247.316 58.4379 247.316 68.4879V105.472H307.214V66.88C307.214 26.278 281.084 0.147949 235.658 0.147949C190.232 0.147949 161.69 26.278 161.69 66.88V97.834C161.69 123.16 170.132 137.23 189.428 150.094L236.462 183.862C242.894 188.686 245.708 193.108 245.708 203.56V226.876Z" fill="white"/>
<path d="M321.956 3.36394V292H437.732V236.926H382.658V170.596H430.898V115.522H382.658V58.4379H437.732V3.36394H321.956Z" fill="white"/>
<path d="M454.255 292H535.057C580.483 292 602.593 271.096 602.593 230.494V187.48C602.593 168.586 592.543 152.104 574.051 144.466C591.739 138.034 600.583 121.15 600.583 101.854V64.8699C600.583 24.2679 578.473 3.36394 533.047 3.36394H454.255V292ZM539.479 70.8999V102.256C539.479 112.306 535.057 117.934 527.017 117.934H515.359V55.2219H527.017C535.057 55.2219 539.479 60.8499 539.479 70.8999ZM541.087 185.872V224.464C541.087 234.514 536.665 240.142 528.223 240.142H515.359V168.988H526.615C536.665 168.988 541.087 175.018 541.087 185.872Z" fill="white"/>
<path d="M689.544 0.147949C644.118 0.147949 615.174 26.68 615.174 66.88V228.484C615.174 268.684 644.118 295.216 689.544 295.216C734.97 295.216 763.914 268.684 763.914 228.484V66.88C763.914 26.68 734.97 0.147949 689.544 0.147949ZM689.544 52.006C697.986 52.006 702.006 58.4379 702.006 68.4879V226.876C702.006 236.926 697.986 243.358 689.544 243.358C681.102 243.358 676.68 236.926 676.68 226.876V68.4879C676.68 58.4379 681.102 52.006 689.544 52.006Z" fill="white"/>
</svg>
