<svg width="1412" height="296" viewBox="0 0 1412 296" fill="none" xmlns="http://www.w3.org/2000/svg">
<path d="M0 291.852H80.802C126.228 291.852 148.338 270.948 148.338 230.346V187.332C148.338 168.438 138.288 151.956 119.796 144.318C137.484 137.886 146.328 121.002 146.328 101.706V64.722C146.328 24.12 124.218 3.21599 78.792 3.21599H0V291.852ZM85.224 70.752V102.108C85.224 112.158 80.802 117.786 72.762 117.786H61.104V55.074H72.762C80.802 55.074 85.224 60.702 85.224 70.752ZM86.832 185.724V224.316C86.832 234.366 82.41 239.994 73.968 239.994H61.104V168.84H72.36C82.41 168.84 86.832 174.87 86.832 185.724Z" fill="black"/>
<path d="M225.622 3.21599H163.312V291.852H225.622V3.21599Z" fill="black"/>
<path d="M388.904 112.158V66.732C388.904 26.532 362.372 0 316.946 0C271.922 0 242.576 26.532 242.576 66.732V230.346C242.576 271.35 267.5 295.068 300.464 295.068C316.544 295.068 326.996 288.234 332.222 279.39V291.852H388.904V132.66H315.338V184.518H328.604V226.728C328.604 236.778 324.986 243.21 316.544 243.21C308.102 243.21 304.082 236.778 304.082 226.728V68.34C304.082 58.29 308.102 51.858 316.544 51.858C324.986 51.858 328.604 58.29 328.604 68.34V112.158H388.904Z" fill="black"/>
<path d="M406.711 291.852H487.513C532.939 291.852 555.049 270.948 555.049 230.346V187.332C555.049 168.438 544.999 151.956 526.507 144.318C544.195 137.886 553.039 121.002 553.039 101.706V64.722C553.039 24.12 530.929 3.21599 485.503 3.21599H406.711V291.852ZM491.935 70.752V102.108C491.935 112.158 487.513 117.786 479.473 117.786H467.815V55.074H479.473C487.513 55.074 491.935 60.702 491.935 70.752ZM493.543 185.724V224.316C493.543 234.366 489.121 239.994 480.679 239.994H467.815V168.84H479.071C489.121 168.84 493.543 174.87 493.543 185.724Z" fill="black"/>
<path d="M596.267 3.21599L557.674 291.852H615.965L621.593 233.964H651.743L657.773 291.852H718.073L679.079 3.21599H596.267ZM631.241 136.278L636.065 82.008H636.869L642.095 136.278L646.919 184.518H626.417L631.241 136.278Z" fill="black"/>
<path d="M728.625 291.852H809.427C854.853 291.852 876.963 270.948 876.963 230.346V187.332C876.963 168.438 866.913 151.956 848.421 144.318C866.109 137.886 874.953 121.002 874.953 101.706V64.722C874.953 24.12 852.843 3.21599 807.417 3.21599H728.625V291.852ZM813.849 70.752V102.108C813.849 112.158 809.427 117.786 801.387 117.786H789.729V55.074H801.387C809.427 55.074 813.849 60.702 813.849 70.752ZM815.457 185.724V224.316C815.457 234.366 811.035 239.994 802.593 239.994H789.729V168.84H800.985C811.035 168.84 815.457 174.87 815.457 185.724Z" fill="black"/>
<path d="M982.296 174.468L1032.55 3.21599H972.246L953.352 93.666H952.548L933.252 3.21599H870.54L919.986 172.86V291.852H982.296V174.468Z" fill="black"/>
<path d="M1001.86 291.852H1063.77V225.924H1001.86V291.852Z" fill="black"/>
<path d="M1082.34 3.21599V291.852H1143.84V170.448H1191.28V115.374H1143.84V58.29H1198.11V3.21599H1082.34Z" fill="black"/>
<path d="M1334.08 291.852L1354.18 120.198H1354.98L1354.18 178.488V291.852H1411.26V3.21599H1328.85L1312.37 157.986H1311.57L1294.68 3.21599H1212.67V291.852H1269.36V178.488L1268.95 120.198H1269.76L1289.46 291.852H1334.08Z" fill="black"/>
</svg>
