<svg width="1412" height="296" viewBox="0 0 1412 296" fill="none" xmlns="http://www.w3.org/2000/svg">
<path d="M0.557617 292H81.3596C126.786 292 148.896 271.096 148.896 230.494V187.48C148.896 168.586 138.846 152.104 120.354 144.466C138.042 138.034 146.886 121.15 146.886 101.854V64.8699C146.886 24.2679 124.776 3.36394 79.3496 3.36394H0.557617V292ZM85.7816 70.8999V102.256C85.7816 112.306 81.3596 117.934 73.3196 117.934H61.6616V55.2219H73.3196C81.3596 55.2219 85.7816 60.8499 85.7816 70.8999ZM87.3896 185.872V224.464C87.3896 234.514 82.9676 240.142 74.5256 240.142H61.6616V168.988H72.9176C82.9676 168.988 87.3896 175.018 87.3896 185.872Z" fill="white"/>
<path d="M226.18 3.36394H163.87V292H226.18V3.36394Z" fill="white"/>
<path d="M389.461 112.306V66.88C389.461 26.68 362.929 0.147949 317.503 0.147949C272.479 0.147949 243.133 26.68 243.133 66.88V230.494C243.133 271.498 268.057 295.216 301.021 295.216C317.101 295.216 327.553 288.382 332.779 279.538V292H389.461V132.808H315.895V184.666H329.161V226.876C329.161 236.926 325.543 243.358 317.101 243.358C308.659 243.358 304.639 236.926 304.639 226.876V68.4879C304.639 58.4379 308.659 52.006 317.101 52.006C325.543 52.006 329.161 58.4379 329.161 68.4879V112.306H389.461Z" fill="white"/>
<path d="M407.269 292H488.071C533.497 292 555.607 271.096 555.607 230.494V187.48C555.607 168.586 545.557 152.104 527.065 144.466C544.753 138.034 553.597 121.15 553.597 101.854V64.8699C553.597 24.2679 531.487 3.36394 486.061 3.36394H407.269V292ZM492.493 70.8999V102.256C492.493 112.306 488.071 117.934 480.031 117.934H468.373V55.2219H480.031C488.071 55.2219 492.493 60.8499 492.493 70.8999ZM494.101 185.872V224.464C494.101 234.514 489.679 240.142 481.237 240.142H468.373V168.988H479.629C489.679 168.988 494.101 175.018 494.101 185.872Z" fill="white"/>
<path d="M596.824 3.36394L558.232 292H616.522L622.15 234.112H652.3L658.33 292H718.63L679.636 3.36394H596.824ZM631.798 136.426L636.622 82.1559H637.426L642.652 136.426L647.476 184.666H626.974L631.798 136.426Z" fill="white"/>
<path d="M729.183 292H809.985C855.411 292 877.521 271.096 877.521 230.494V187.48C877.521 168.586 867.471 152.104 848.979 144.466C866.667 138.034 875.511 121.15 875.511 101.854V64.8699C875.511 24.2679 853.401 3.36394 807.975 3.36394H729.183V292ZM814.407 70.8999V102.256C814.407 112.306 809.985 117.934 801.945 117.934H790.287V55.2219H801.945C809.985 55.2219 814.407 60.8499 814.407 70.8999ZM816.015 185.872V224.464C816.015 234.514 811.593 240.142 803.151 240.142H790.287V168.988H801.543C811.593 168.988 816.015 175.018 816.015 185.872Z" fill="white"/>
<path d="M982.854 174.616L1033.1 3.36394H972.804L953.91 93.8139H953.106L933.81 3.36394H871.098L920.544 173.008V292H982.854V174.616Z" fill="white"/>
<path d="M1002.42 292H1064.33V226.072H1002.42V292Z" fill="white"/>
<path d="M1082.9 3.36394V292H1144.4V170.596H1191.84V115.522H1144.4V58.4379H1198.67V3.36394H1082.9Z" fill="white"/>
<path d="M1334.64 292L1354.74 120.346H1355.54L1354.74 178.636V292H1411.82V3.36394H1329.41L1312.93 158.134H1312.12L1295.24 3.36394H1213.23V292H1269.91V178.636L1269.51 120.346H1270.32L1290.01 292H1334.64Z" fill="white"/>
</svg>
